<?xml version="1.0" encoding="utf-8"?><svg xmlns="http://www.w3.org/2000/svg" xmlns:xlink="http://www.w3.org/1999/xlink"><symbol viewBox="0 0 10.26 10.35" id="close" xmlns="http://www.w3.org/2000/svg"><path d="M6.49 5.08l3.37-3.37a1 1 0 000-1.42 1 1 0 00-1.41 0L5.08 3.66 1.77.36A1 1 0 00.36 1.77l3.3 3.31L.29 8.45a1 1 0 101.42 1.41l3.37-3.37 3.3 3.31a1 1 0 00.71.29 1 1 0 00.71-.29 1 1 0 000-1.42z"/></symbol><symbol viewBox="0 0 12.04 12" id="edit" xmlns="http://www.w3.org/2000/svg"><path d="M11.43.57a1.91 1.91 0 00-2.72 0L1.4 7.87 0 11.45a.44.44 0 00.44.55h.12l3.59-1.41 7.28-7.29a1.91 1.91 0 000-2.73zm-10 10.58l-.6-.59.73-1.88v.05l1.64 1.64.05.05z"/></symbol><symbol viewBox="0 0 116.57 92.93" id="logo" xmlns="http://www.w3.org/2000/svg"><path d="M86.6 92.93H30a4.33 4.33 0 01-4.32-4.33V4.32A4.33 4.33 0 0130 0h56.6a4.33 4.33 0 014.32 4.32V88.6a4.33 4.33 0 01-4.32 4.33zm-53.35-7.6h50.07V7.6H33.25zM20.66 73H7.6V22.27h13.06v-7.6H4.32A4.33 4.33 0 000 19v57.3a4.33 4.33 0 004.32 4.33h16.34zM112.25 14.67H95.91v7.6H109V73H95.91v7.6h16.34a4.33 4.33 0 004.32-4.33V19a4.33 4.33 0 00-4.32-4.33z"/><rect x="62.61" y="11.92" width="16.24" height="5.63" rx="2.14"/></symbol><symbol viewBox="0 0 24.03 18.75" id="member" xmlns="http://www.w3.org/2000/svg"><path d="M23.27 6.57h-2.93V3.64a.85.85 0 10-1.69 0v2.93h-2.93a.85.85 0 000 1.69h2.93v2.93a.85.85 0 001.69 0V8.26h2.93a.85.85 0 000-1.69zM7.41 8a4 4 0 10-4-4 4 4 0 004 4zM7.58 10.38A8.2 8.2 0 000 15.46a12.87 12.87 0 0015.16 0 8.18 8.18 0 00-7.58-5.08z"/></symbol><symbol viewBox="0 0 19.49 4" id="menu" xmlns="http://www.w3.org/2000/svg"><circle cx="2" cy="2" r="2"/><circle cx="17.49" cy="2" r="2"/><circle cx="9.75" cy="2" r="2"/></symbol><symbol viewBox="0 0 19.05 18.83" id="plus" xmlns="http://www.w3.org/2000/svg"><path d="M16.93 7.49h-5.54V2a1.95 1.95 0 00-3.9 0v5.49H2a2 2 0 100 3.9h5.49v5.54a1.95 1.95 0 103.9 0v-5.54h5.54a2 2 0 000-3.9z"/></symbol><symbol viewBox="0 0 11.62 11.67" id="plusmini" xmlns="http://www.w3.org/2000/svg"><path d="M10.61 4.62H7.12V1.21a1.21 1.21 0 00-2.42 0v3.41H1.21a1.22 1.22 0 000 2.43H4.7v3.41a1.21 1.21 0 102.42 0V7.05h3.49a1.22 1.22 0 000-2.43z"/></symbol></svg>