<?xml version="1.0" encoding="utf-8"?><svg xmlns="http://www.w3.org/2000/svg" xmlns:xlink="http://www.w3.org/1999/xlink"><symbol viewBox="0 0 320 320" id="close" xmlns="http://www.w3.org/2000/svg"><path d="M160 0a160 160 0 10160 160A160 160 0 00160 0zm90.56 229.34a15 15 0 01-21.22 21.22L160 181.21l-69.34 69.35a15 15 0 01-21.22-21.22L138.79 160 69.44 90.66a15 15 0 0121.22-21.22L160 138.79l69.34-69.35a15 15 0 0121.22 21.22L181.21 160z"/></symbol><symbol viewBox="0 0 214 158" id="menu" xmlns="http://www.w3.org/2000/svg"><path d="M199.5 29h-185a14.5 14.5 0 010-29h185a14.5 14.5 0 010 29zM199.5 92.5h-185a14.5 14.5 0 010-29h185a14.5 14.5 0 010 29zM199.5 158h-185a14.5 14.5 0 010-29h185a14.5 14.5 0 010 29z"/></symbol><symbol viewBox="0 0 320 320" id="new" xmlns="http://www.w3.org/2000/svg"><path d="M160 0C71.63 0 0 71.63 0 160s71.63 160 160 160 160-71.63 160-160S248.37 0 160 0zm92.5 174.5h-78v78c0 8.01-6.49 14.5-14.5 14.5s-14.5-6.49-14.5-14.5v-78h-78c-8.01 0-14.5-6.49-14.5-14.5s6.49-14.5 14.5-14.5h78v-78c0-8.01 6.49-14.5 14.5-14.5s14.5 6.49 14.5 14.5v78h78c8.01 0 14.5 6.49 14.5 14.5s-6.49 14.5-14.5 14.5z"/></symbol><symbol viewBox="0 0 444.98 354.72" id="project" xmlns="http://www.w3.org/2000/svg"><path d="M78.87 278.73H29V85h49.87V56H16.5A16.52 16.52 0 000 72.5v218.73a16.52 16.52 0 0016.5 16.5h62.37zM428.48 56h-62.37v29H416v193.73h-49.89v29h62.37a16.52 16.52 0 0016.5-16.5V72.5a16.52 16.52 0 00-16.5-16.5zM330.57 354.72H114.41a16.52 16.52 0 01-16.5-16.5V16.5A16.52 16.52 0 01114.41 0h216.16a16.52 16.52 0 0116.5 16.5v321.72a16.52 16.52 0 01-16.5 16.5zm-203.66-29h191.16V29H126.91z"/><rect x="238.52" y="45.6" width="62" height="21.48" rx="10.74"/></symbol></svg>