<?xml version="1.0" encoding="utf-8"?><svg xmlns="http://www.w3.org/2000/svg" xmlns:xlink="http://www.w3.org/1999/xlink"><symbol viewBox="0 0 320 320" id="close" xmlns="http://www.w3.org/2000/svg"><path d="M160 0a160 160 0 10160 160A160 160 0 00160 0zm90.56 229.34a15 15 0 01-21.22 21.22L160 181.21l-69.34 69.35a15 15 0 01-21.22-21.22L138.79 160 69.44 90.66a15 15 0 0121.22-21.22L160 138.79l69.34-69.35a15 15 0 0121.22 21.22L181.21 160z"/></symbol><symbol viewBox="0 0 214 158" id="menu" xmlns="http://www.w3.org/2000/svg"><path d="M199.5 29h-185a14.5 14.5 0 010-29h185a14.5 14.5 0 010 29zM199.5 92.5h-185a14.5 14.5 0 010-29h185a14.5 14.5 0 010 29zM199.5 158h-185a14.5 14.5 0 010-29h185a14.5 14.5 0 010 29z"/></symbol></svg>