<?xml version="1.0" encoding="utf-8"?><svg xmlns="http://www.w3.org/2000/svg" xmlns:xlink="http://www.w3.org/1999/xlink"><symbol viewBox="0 0 10.26 10.35" id="close" xmlns="http://www.w3.org/2000/svg"><path d="M6.49 5.08l3.37-3.37a1 1 0 000-1.42 1 1 0 00-1.41 0L5.08 3.66 1.77.36A1 1 0 00.36 1.77l3.3 3.31L.29 8.45a1 1 0 101.42 1.41l3.37-3.37 3.3 3.31a1 1 0 00.71.29 1 1 0 00.71-.29 1 1 0 000-1.42z"/></symbol><symbol viewBox="0 0 91 10" id="dot" xmlns="http://www.w3.org/2000/svg"><path d="M90 9h1v1h-1zM84 9h1v1h-1zM87 9h1v1h-1zM78 9h1v1h-1zM81 9h1v1h-1zM72 9h1v1h-1zM75 9h1v1h-1zM66 9h1v1h-1zM69 9h1v1h-1zM60 9h1v1h-1zM63 9h1v1h-1zM54 9h1v1h-1zM57 9h1v1h-1zM48 9h1v1h-1zM51 9h1v1h-1zM42 9h1v1h-1zM45 9h1v1h-1zM36 9h1v1h-1zM39 9h1v1h-1zM30 9h1v1h-1zM33 9h1v1h-1zM24 9h1v1h-1zM27 9h1v1h-1zM18 9h1v1h-1zM21 9h1v1h-1zM12 9h1v1h-1zM15 9h1v1h-1zM6 9h1v1H6zM9 9h1v1H9zM0 9h1v1H0zM3 9h1v1H3zM88 8h1v1h-1zM82 8h1v1h-1zM85 8h1v1h-1zM76 8h1v1h-1zM79 8h1v1h-1zM70 8h1v1h-1zM73 8h1v1h-1zM64 8h1v1h-1zM67 8h1v1h-1zM58 8h1v1h-1zM61 8h1v1h-1zM52 8h1v1h-1zM55 8h1v1h-1zM46 8h1v1h-1zM49 8h1v1h-1zM40 8h1v1h-1zM43 8h1v1h-1zM34 8h1v1h-1zM37 8h1v1h-1zM28 8h1v1h-1zM31 8h1v1h-1zM22 8h1v1h-1zM25 8h1v1h-1zM16 8h1v1h-1zM19 8h1v1h-1zM10 8h1v1h-1zM13 8h1v1h-1zM4 8h1v1H4zM7 8h1v1H7zM1 8h1v1H1zM86 7h1v1h-1zM89 7h1v1h-1zM80 7h1v1h-1zM83 7h1v1h-1zM74 7h1v1h-1zM77 7h1v1h-1zM68 7h1v1h-1zM71 7h1v1h-1zM62 7h1v1h-1zM65 7h1v1h-1zM56 7h1v1h-1zM59 7h1v1h-1zM50 7h1v1h-1zM53 7h1v1h-1zM44 7h1v1h-1zM47 7h1v1h-1zM38 7h1v1h-1zM41 7h1v1h-1zM32 7h1v1h-1zM35 7h1v1h-1zM26 7h1v1h-1zM29 7h1v1h-1zM20 7h1v1h-1zM23 7h1v1h-1zM14 7h1v1h-1zM17 7h1v1h-1zM8 7h1v1H8zM11 7h1v1h-1zM2 7h1v1H2zM5 7h1v1H5zM90 6h1v1h-1zM84 6h1v1h-1zM87 6h1v1h-1zM78 6h1v1h-1zM81 6h1v1h-1zM72 6h1v1h-1zM75 6h1v1h-1zM66 6h1v1h-1zM69 6h1v1h-1zM60 6h1v1h-1zM63 6h1v1h-1zM54 6h1v1h-1zM57 6h1v1h-1zM48 6h1v1h-1zM51 6h1v1h-1zM42 6h1v1h-1zM45 6h1v1h-1zM36 6h1v1h-1zM39 6h1v1h-1zM30 6h1v1h-1zM33 6h1v1h-1zM24 6h1v1h-1zM27 6h1v1h-1zM18 6h1v1h-1zM21 6h1v1h-1zM12 6h1v1h-1zM15 6h1v1h-1zM6 6h1v1H6zM9 6h1v1H9zM0 6h1v1H0zM3 6h1v1H3zM88 5h1v1h-1zM82 5h1v1h-1zM85 5h1v1h-1zM76 5h1v1h-1zM79 5h1v1h-1zM70 5h1v1h-1zM73 5h1v1h-1zM64 5h1v1h-1zM67 5h1v1h-1zM58 5h1v1h-1zM61 5h1v1h-1zM52 5h1v1h-1zM55 5h1v1h-1zM46 5h1v1h-1zM49 5h1v1h-1zM40 5h1v1h-1zM43 5h1v1h-1zM34 5h1v1h-1zM37 5h1v1h-1zM28 5h1v1h-1zM31 5h1v1h-1zM22 5h1v1h-1zM25 5h1v1h-1zM16 5h1v1h-1zM19 5h1v1h-1zM10 5h1v1h-1zM13 5h1v1h-1zM4 5h1v1H4zM7 5h1v1H7zM1 5h1v1H1zM86 4h1v1h-1zM89 4h1v1h-1zM80 4h1v1h-1zM83 4h1v1h-1zM74 4h1v1h-1zM77 4h1v1h-1zM68 4h1v1h-1zM71 4h1v1h-1zM62 4h1v1h-1zM65 4h1v1h-1zM56 4h1v1h-1zM59 4h1v1h-1zM50 4h1v1h-1zM53 4h1v1h-1zM44 4h1v1h-1zM47 4h1v1h-1zM38 4h1v1h-1zM41 4h1v1h-1zM32 4h1v1h-1zM35 4h1v1h-1zM26 4h1v1h-1zM29 4h1v1h-1zM20 4h1v1h-1zM23 4h1v1h-1zM14 4h1v1h-1zM17 4h1v1h-1zM8 4h1v1H8zM11 4h1v1h-1zM2 4h1v1H2zM5 4h1v1H5zM90 3h1v1h-1zM84 3h1v1h-1zM87 3h1v1h-1zM78 3h1v1h-1zM81 3h1v1h-1zM72 3h1v1h-1zM75 3h1v1h-1zM66 3h1v1h-1zM69 3h1v1h-1zM60 3h1v1h-1zM63 3h1v1h-1zM54 3h1v1h-1zM57 3h1v1h-1zM48 3h1v1h-1zM51 3h1v1h-1zM42 3h1v1h-1zM45 3h1v1h-1zM36 3h1v1h-1zM39 3h1v1h-1zM30 3h1v1h-1zM33 3h1v1h-1zM24 3h1v1h-1zM27 3h1v1h-1zM18 3h1v1h-1zM21 3h1v1h-1zM12 3h1v1h-1zM15 3h1v1h-1zM6 3h1v1H6zM9 3h1v1H9zM0 3h1v1H0zM3 3h1v1H3zM88 2h1v1h-1zM82 2h1v1h-1zM85 2h1v1h-1zM76 2h1v1h-1zM79 2h1v1h-1zM70 2h1v1h-1zM73 2h1v1h-1zM64 2h1v1h-1zM67 2h1v1h-1zM58 2h1v1h-1zM61 2h1v1h-1zM52 2h1v1h-1zM55 2h1v1h-1zM46 2h1v1h-1zM49 2h1v1h-1zM40 2h1v1h-1zM43 2h1v1h-1zM34 2h1v1h-1zM37 2h1v1h-1zM28 2h1v1h-1zM31 2h1v1h-1zM22 2h1v1h-1zM25 2h1v1h-1zM16 2h1v1h-1zM19 2h1v1h-1zM10 2h1v1h-1zM13 2h1v1h-1zM4 2h1v1H4zM7 2h1v1H7zM1 2h1v1H1zM86 1h1v1h-1zM89 1h1v1h-1zM80 1h1v1h-1zM83 1h1v1h-1zM74 1h1v1h-1zM77 1h1v1h-1zM68 1h1v1h-1zM71 1h1v1h-1zM62 1h1v1h-1zM65 1h1v1h-1zM56 1h1v1h-1zM59 1h1v1h-1zM50 1h1v1h-1zM53 1h1v1h-1zM44 1h1v1h-1zM47 1h1v1h-1zM38 1h1v1h-1zM41 1h1v1h-1zM32 1h1v1h-1zM35 1h1v1h-1zM26 1h1v1h-1zM29 1h1v1h-1zM20 1h1v1h-1zM23 1h1v1h-1zM14 1h1v1h-1zM17 1h1v1h-1zM8 1h1v1H8zM11 1h1v1h-1zM2 1h1v1H2zM5 1h1v1H5zM90 0h1v1h-1zM84 0h1v1h-1zM87 0h1v1h-1zM78 0h1v1h-1zM81 0h1v1h-1zM72 0h1v1h-1zM75 0h1v1h-1zM66 0h1v1h-1zM69 0h1v1h-1zM60 0h1v1h-1zM63 0h1v1h-1zM54 0h1v1h-1zM57 0h1v1h-1zM48 0h1v1h-1zM51 0h1v1h-1zM42 0h1v1h-1zM45 0h1v1h-1zM36 0h1v1h-1zM39 0h1v1h-1zM30 0h1v1h-1zM33 0h1v1h-1zM24 0h1v1h-1zM27 0h1v1h-1zM18 0h1v1h-1zM21 0h1v1h-1zM12 0h1v1h-1zM15 0h1v1h-1zM6 0h1v1H6zM9 0h1v1H9zM0 0h1v1H0zM3 0h1v1H3z"/></symbol><symbol viewBox="0 0 12.04 12" id="edit" xmlns="http://www.w3.org/2000/svg"><path d="M11.43.57a1.91 1.91 0 00-2.72 0L1.4 7.87 0 11.45a.44.44 0 00.44.55h.12l3.59-1.41 7.28-7.29a1.91 1.91 0 000-2.73zm-10 10.58l-.6-.59.73-1.88v.05l1.64 1.64.05.05z"/></symbol><symbol viewBox="0 0 116.57 92.93" id="logo" xmlns="http://www.w3.org/2000/svg"><path d="M86.6 92.93H30a4.33 4.33 0 01-4.32-4.33V4.32A4.33 4.33 0 0130 0h56.6a4.33 4.33 0 014.32 4.32V88.6a4.33 4.33 0 01-4.32 4.33zm-53.35-7.6h50.07V7.6H33.25zM20.66 73H7.6V22.27h13.06v-7.6H4.32A4.33 4.33 0 000 19v57.3a4.33 4.33 0 004.32 4.33h16.34zM112.25 14.67H95.91v7.6H109V73H95.91v7.6h16.34a4.33 4.33 0 004.32-4.33V19a4.33 4.33 0 00-4.32-4.33z"/><rect x="62.61" y="11.92" width="16.24" height="5.63" rx="2.14"/></symbol><symbol viewBox="0 0 24.03 18.75" id="member" xmlns="http://www.w3.org/2000/svg"><path d="M23.27 6.57h-2.93V3.64a.85.85 0 10-1.69 0v2.93h-2.93a.85.85 0 000 1.69h2.93v2.93a.85.85 0 001.69 0V8.26h2.93a.85.85 0 000-1.69zM7.41 8a4 4 0 10-4-4 4 4 0 004 4zM7.58 10.38A8.2 8.2 0 000 15.46a12.87 12.87 0 0015.16 0 8.18 8.18 0 00-7.58-5.08z"/></symbol><symbol viewBox="0 0 19.49 4" id="menu" xmlns="http://www.w3.org/2000/svg"><circle cx="2" cy="2" r="2"/><circle cx="17.49" cy="2" r="2"/><circle cx="9.75" cy="2" r="2"/></symbol><symbol viewBox="0 0 19.05 18.83" id="plus" xmlns="http://www.w3.org/2000/svg"><path d="M16.93 7.49h-5.54V2a1.95 1.95 0 00-3.9 0v5.49H2a2 2 0 100 3.9h5.49v5.54a1.95 1.95 0 103.9 0v-5.54h5.54a2 2 0 000-3.9z"/></symbol><symbol viewBox="0 0 11.62 11.67" id="plusmini" xmlns="http://www.w3.org/2000/svg"><path d="M10.61 4.62H7.12V1.21a1.21 1.21 0 00-2.42 0v3.41H1.21a1.22 1.22 0 000 2.43H4.7v3.41a1.21 1.21 0 102.42 0V7.05h3.49a1.22 1.22 0 000-2.43z"/></symbol></svg>