<svg id="a4c6b6ac-3164-4a37-8fc2-1244ea8149d4" data-name="dot" xmlns="http://www.w3.org/2000/svg" ><title>dot</title><rect  x="90" y="9" width="1" height="1"/><rect  x="84" y="9" width="1" height="1"/><rect  x="87" y="9" width="1" height="1"/><rect  x="78" y="9" width="1" height="1"/><rect  x="81" y="9" width="1" height="1"/><rect  x="72" y="9" width="1" height="1"/><rect  x="75" y="9" width="1" height="1"/><rect  x="66" y="9" width="1" height="1"/><rect  x="69" y="9" width="1" height="1"/><rect  x="60" y="9" width="1" height="1"/><rect  x="63" y="9" width="1" height="1"/><rect  x="54" y="9" width="1" height="1"/><rect  x="57" y="9" width="1" height="1"/><rect  x="48" y="9" width="1" height="1"/><rect  x="51" y="9" width="1" height="1"/><rect  x="42" y="9" width="1" height="1"/><rect  x="45" y="9" width="1" height="1"/><rect  x="36" y="9" width="1" height="1"/><rect  x="39" y="9" width="1" height="1"/><rect  x="30" y="9" width="1" height="1"/><rect  x="33" y="9" width="1" height="1"/><rect  x="24" y="9" width="1" height="1"/><rect  x="27" y="9" width="1" height="1"/><rect  x="18" y="9" width="1" height="1"/><rect  x="21" y="9" width="1" height="1"/><rect  x="12" y="9" width="1" height="1"/><rect  x="15" y="9" width="1" height="1"/><rect  x="6" y="9" width="1" height="1"/><rect  x="9" y="9" width="1" height="1"/><rect  y="9" width="1" height="1"/><rect  x="3" y="9" width="1" height="1"/><rect  x="88" y="8" width="1" height="1"/><rect  x="82" y="8" width="1" height="1"/><rect  x="85" y="8" width="1" height="1"/><rect  x="76" y="8" width="1" height="1"/><rect  x="79" y="8" width="1" height="1"/><rect  x="70" y="8" width="1" height="1"/><rect  x="73" y="8" width="1" height="1"/><rect  x="64" y="8" width="1" height="1"/><rect  x="67" y="8" width="1" height="1"/><rect  x="58" y="8" width="1" height="1"/><rect  x="61" y="8" width="1" height="1"/><rect  x="52" y="8" width="1" height="1"/><rect  x="55" y="8" width="1" height="1"/><rect  x="46" y="8" width="1" height="1"/><rect  x="49" y="8" width="1" height="1"/><rect  x="40" y="8" width="1" height="1"/><rect  x="43" y="8" width="1" height="1"/><rect  x="34" y="8" width="1" height="1"/><rect  x="37" y="8" width="1" height="1"/><rect  x="28" y="8" width="1" height="1"/><rect  x="31" y="8" width="1" height="1"/><rect  x="22" y="8" width="1" height="1"/><rect  x="25" y="8" width="1" height="1"/><rect  x="16" y="8" width="1" height="1"/><rect  x="19" y="8" width="1" height="1"/><rect  x="10" y="8" width="1" height="1"/><rect  x="13" y="8" width="1" height="1"/><rect  x="4" y="8" width="1" height="1"/><rect  x="7" y="8" width="1" height="1"/><rect  x="1" y="8" width="1" height="1"/><rect  x="86" y="7" width="1" height="1"/><rect  x="89" y="7" width="1" height="1"/><rect  x="80" y="7" width="1" height="1"/><rect  x="83" y="7" width="1" height="1"/><rect  x="74" y="7" width="1" height="1"/><rect  x="77" y="7" width="1" height="1"/><rect  x="68" y="7" width="1" height="1"/><rect  x="71" y="7" width="1" height="1"/><rect  x="62" y="7" width="1" height="1"/><rect  x="65" y="7" width="1" height="1"/><rect  x="56" y="7" width="1" height="1"/><rect  x="59" y="7" width="1" height="1"/><rect  x="50" y="7" width="1" height="1"/><rect  x="53" y="7" width="1" height="1"/><rect  x="44" y="7" width="1" height="1"/><rect  x="47" y="7" width="1" height="1"/><rect  x="38" y="7" width="1" height="1"/><rect  x="41" y="7" width="1" height="1"/><rect  x="32" y="7" width="1" height="1"/><rect  x="35" y="7" width="1" height="1"/><rect  x="26" y="7" width="1" height="1"/><rect  x="29" y="7" width="1" height="1"/><rect  x="20" y="7" width="1" height="1"/><rect  x="23" y="7" width="1" height="1"/><rect  x="14" y="7" width="1" height="1"/><rect  x="17" y="7" width="1" height="1"/><rect  x="8" y="7" width="1" height="1"/><rect  x="11" y="7" width="1" height="1"/><rect  x="2" y="7" width="1" height="1"/><rect  x="5" y="7" width="1" height="1"/><rect  x="90" y="6" width="1" height="1"/><rect  x="84" y="6" width="1" height="1"/><rect  x="87" y="6" width="1" height="1"/><rect  x="78" y="6" width="1" height="1"/><rect  x="81" y="6" width="1" height="1"/><rect  x="72" y="6" width="1" height="1"/><rect  x="75" y="6" width="1" height="1"/><rect  x="66" y="6" width="1" height="1"/><rect  x="69" y="6" width="1" height="1"/><rect  x="60" y="6" width="1" height="1"/><rect  x="63" y="6" width="1" height="1"/><rect  x="54" y="6" width="1" height="1"/><rect  x="57" y="6" width="1" height="1"/><rect  x="48" y="6" width="1" height="1"/><rect  x="51" y="6" width="1" height="1"/><rect  x="42" y="6" width="1" height="1"/><rect  x="45" y="6" width="1" height="1"/><rect  x="36" y="6" width="1" height="1"/><rect  x="39" y="6" width="1" height="1"/><rect  x="30" y="6" width="1" height="1"/><rect  x="33" y="6" width="1" height="1"/><rect  x="24" y="6" width="1" height="1"/><rect  x="27" y="6" width="1" height="1"/><rect  x="18" y="6" width="1" height="1"/><rect  x="21" y="6" width="1" height="1"/><rect  x="12" y="6" width="1" height="1"/><rect  x="15" y="6" width="1" height="1"/><rect  x="6" y="6" width="1" height="1"/><rect  x="9" y="6" width="1" height="1"/><rect  y="6" width="1" height="1"/><rect  x="3" y="6" width="1" height="1"/><rect  x="88" y="5" width="1" height="1"/><rect  x="82" y="5" width="1" height="1"/><rect  x="85" y="5" width="1" height="1"/><rect  x="76" y="5" width="1" height="1"/><rect  x="79" y="5" width="1" height="1"/><rect  x="70" y="5" width="1" height="1"/><rect  x="73" y="5" width="1" height="1"/><rect  x="64" y="5" width="1" height="1"/><rect  x="67" y="5" width="1" height="1"/><rect  x="58" y="5" width="1" height="1"/><rect  x="61" y="5" width="1" height="1"/><rect  x="52" y="5" width="1" height="1"/><rect  x="55" y="5" width="1" height="1"/><rect  x="46" y="5" width="1" height="1"/><rect  x="49" y="5" width="1" height="1"/><rect  x="40" y="5" width="1" height="1"/><rect  x="43" y="5" width="1" height="1"/><rect  x="34" y="5" width="1" height="1"/><rect  x="37" y="5" width="1" height="1"/><rect  x="28" y="5" width="1" height="1"/><rect  x="31" y="5" width="1" height="1"/><rect  x="22" y="5" width="1" height="1"/><rect  x="25" y="5" width="1" height="1"/><rect  x="16" y="5" width="1" height="1"/><rect  x="19" y="5" width="1" height="1"/><rect  x="10" y="5" width="1" height="1"/><rect  x="13" y="5" width="1" height="1"/><rect  x="4" y="5" width="1" height="1"/><rect  x="7" y="5" width="1" height="1"/><rect  x="1" y="5" width="1" height="1"/><rect  x="86" y="4" width="1" height="1"/><rect  x="89" y="4" width="1" height="1"/><rect  x="80" y="4" width="1" height="1"/><rect  x="83" y="4" width="1" height="1"/><rect  x="74" y="4" width="1" height="1"/><rect  x="77" y="4" width="1" height="1"/><rect  x="68" y="4" width="1" height="1"/><rect  x="71" y="4" width="1" height="1"/><rect  x="62" y="4" width="1" height="1"/><rect  x="65" y="4" width="1" height="1"/><rect  x="56" y="4" width="1" height="1"/><rect  x="59" y="4" width="1" height="1"/><rect  x="50" y="4" width="1" height="1"/><rect  x="53" y="4" width="1" height="1"/><rect  x="44" y="4" width="1" height="1"/><rect  x="47" y="4" width="1" height="1"/><rect  x="38" y="4" width="1" height="1"/><rect  x="41" y="4" width="1" height="1"/><rect  x="32" y="4" width="1" height="1"/><rect  x="35" y="4" width="1" height="1"/><rect  x="26" y="4" width="1" height="1"/><rect  x="29" y="4" width="1" height="1"/><rect  x="20" y="4" width="1" height="1"/><rect  x="23" y="4" width="1" height="1"/><rect  x="14" y="4" width="1" height="1"/><rect  x="17" y="4" width="1" height="1"/><rect  x="8" y="4" width="1" height="1"/><rect  x="11" y="4" width="1" height="1"/><rect  x="2" y="4" width="1" height="1"/><rect  x="5" y="4" width="1" height="1"/><rect  x="90" y="3" width="1" height="1"/><rect  x="84" y="3" width="1" height="1"/><rect  x="87" y="3" width="1" height="1"/><rect  x="78" y="3" width="1" height="1"/><rect  x="81" y="3" width="1" height="1"/><rect  x="72" y="3" width="1" height="1"/><rect  x="75" y="3" width="1" height="1"/><rect  x="66" y="3" width="1" height="1"/><rect  x="69" y="3" width="1" height="1"/><rect  x="60" y="3" width="1" height="1"/><rect  x="63" y="3" width="1" height="1"/><rect  x="54" y="3" width="1" height="1"/><rect  x="57" y="3" width="1" height="1"/><rect  x="48" y="3" width="1" height="1"/><rect  x="51" y="3" width="1" height="1"/><rect  x="42" y="3" width="1" height="1"/><rect  x="45" y="3" width="1" height="1"/><rect  x="36" y="3" width="1" height="1"/><rect  x="39" y="3" width="1" height="1"/><rect  x="30" y="3" width="1" height="1"/><rect  x="33" y="3" width="1" height="1"/><rect  x="24" y="3" width="1" height="1"/><rect  x="27" y="3" width="1" height="1"/><rect  x="18" y="3" width="1" height="1"/><rect  x="21" y="3" width="1" height="1"/><rect  x="12" y="3" width="1" height="1"/><rect  x="15" y="3" width="1" height="1"/><rect  x="6" y="3" width="1" height="1"/><rect  x="9" y="3" width="1" height="1"/><rect  y="3" width="1" height="1"/><rect  x="3" y="3" width="1" height="1"/><rect  x="88" y="2" width="1" height="1"/><rect  x="82" y="2" width="1" height="1"/><rect  x="85" y="2" width="1" height="1"/><rect  x="76" y="2" width="1" height="1"/><rect  x="79" y="2" width="1" height="1"/><rect  x="70" y="2" width="1" height="1"/><rect  x="73" y="2" width="1" height="1"/><rect  x="64" y="2" width="1" height="1"/><rect  x="67" y="2" width="1" height="1"/><rect  x="58" y="2" width="1" height="1"/><rect  x="61" y="2" width="1" height="1"/><rect  x="52" y="2" width="1" height="1"/><rect  x="55" y="2" width="1" height="1"/><rect  x="46" y="2" width="1" height="1"/><rect  x="49" y="2" width="1" height="1"/><rect  x="40" y="2" width="1" height="1"/><rect  x="43" y="2" width="1" height="1"/><rect  x="34" y="2" width="1" height="1"/><rect  x="37" y="2" width="1" height="1"/><rect  x="28" y="2" width="1" height="1"/><rect  x="31" y="2" width="1" height="1"/><rect  x="22" y="2" width="1" height="1"/><rect  x="25" y="2" width="1" height="1"/><rect  x="16" y="2" width="1" height="1"/><rect  x="19" y="2" width="1" height="1"/><rect  x="10" y="2" width="1" height="1"/><rect  x="13" y="2" width="1" height="1"/><rect  x="4" y="2" width="1" height="1"/><rect  x="7" y="2" width="1" height="1"/><rect  x="1" y="2" width="1" height="1"/><rect  x="86" y="1" width="1" height="1"/><rect  x="89" y="1" width="1" height="1"/><rect  x="80" y="1" width="1" height="1"/><rect  x="83" y="1" width="1" height="1"/><rect  x="74" y="1" width="1" height="1"/><rect  x="77" y="1" width="1" height="1"/><rect  x="68" y="1" width="1" height="1"/><rect  x="71" y="1" width="1" height="1"/><rect  x="62" y="1" width="1" height="1"/><rect  x="65" y="1" width="1" height="1"/><rect  x="56" y="1" width="1" height="1"/><rect  x="59" y="1" width="1" height="1"/><rect  x="50" y="1" width="1" height="1"/><rect  x="53" y="1" width="1" height="1"/><rect  x="44" y="1" width="1" height="1"/><rect  x="47" y="1" width="1" height="1"/><rect  x="38" y="1" width="1" height="1"/><rect  x="41" y="1" width="1" height="1"/><rect  x="32" y="1" width="1" height="1"/><rect  x="35" y="1" width="1" height="1"/><rect  x="26" y="1" width="1" height="1"/><rect  x="29" y="1" width="1" height="1"/><rect  x="20" y="1" width="1" height="1"/><rect  x="23" y="1" width="1" height="1"/><rect  x="14" y="1" width="1" height="1"/><rect  x="17" y="1" width="1" height="1"/><rect  x="8" y="1" width="1" height="1"/><rect  x="11" y="1" width="1" height="1"/><rect  x="2" y="1" width="1" height="1"/><rect  x="5" y="1" width="1" height="1"/><rect  x="90" width="1" height="1"/><rect  x="84" width="1" height="1"/><rect  x="87" width="1" height="1"/><rect  x="78" width="1" height="1"/><rect  x="81" width="1" height="1"/><rect  x="72" width="1" height="1"/><rect  x="75" width="1" height="1"/><rect  x="66" width="1" height="1"/><rect  x="69" width="1" height="1"/><rect  x="60" width="1" height="1"/><rect  x="63" width="1" height="1"/><rect  x="54" width="1" height="1"/><rect  x="57" width="1" height="1"/><rect  x="48" width="1" height="1"/><rect  x="51" width="1" height="1"/><rect  x="42" width="1" height="1"/><rect  x="45" width="1" height="1"/><rect  x="36" width="1" height="1"/><rect  x="39" width="1" height="1"/><rect  x="30" width="1" height="1"/><rect  x="33" width="1" height="1"/><rect  x="24" width="1" height="1"/><rect  x="27" width="1" height="1"/><rect  x="18" width="1" height="1"/><rect  x="21" width="1" height="1"/><rect  x="12" width="1" height="1"/><rect  x="15" width="1" height="1"/><rect  x="6" width="1" height="1"/><rect  x="9" width="1" height="1"/><rect  width="1" height="1"/><rect  x="3" width="1" height="1"/></svg>