<svg id="a2b9c918-43a1-4c87-bbe0-d6cf95c5c3bc" data-name="edit" xmlns="http://www.w3.org/2000/svg" ><title>edit</title><path d="M246,45.5,202.55,2.1a7.16,7.16,0,0,0-10.13,0L159.19,35.33l-68,68L35.76,158.76c-4,4-7.61,6.9-9.77,12.24-1.1,2.72-2.12,5.46-3.17,8.19l-9.11,23.52Q7,220,.32,237.29s0,0,0,0A8.67,8.67,0,0,0,11,248l31.22-12.3,23.33-9.2c9-3.52,15.6-6,22.47-12.91l9.85-9.84,28.94-28.95,71.72-71.72,46-46L246,55.63A7.16,7.16,0,0,0,246,45.5Zm-217.39,186-11.7-11.7L31.26,183l.93.94,32.2,32.19.94.94Z" /></svg>