<svg id="kanban" xmlns="http://www.w3.org/2000/svg" ><title>kanban</title><path d="M84.72,93.13H29.53a4.22,4.22,0,0,1-4.22-4.21V4.21A4.22,4.22,0,0,1,29.53,0H84.72a4.22,4.22,0,0,1,4.21,4.21V88.92A4.22,4.22,0,0,1,84.72,93.13Zm-52-7.41h48.8V7.4H32.72Z"/><path d="M20.45,73.64H7.72V22.16H20.45v-7.4H4.53A4.22,4.22,0,0,0,.31,19V76.83A4.22,4.22,0,0,0,4.53,81H20.45Z"/><path d="M109.72,14.76H93.79v7.4h12.73V73.64H93.79V81h15.93a4.22,4.22,0,0,0,4.21-4.21V19A4.22,4.22,0,0,0,109.72,14.76Z"/><rect x="61.33" y="11.62" width="15.83" height="5.48" rx="2.14"/><path d="M11.16,108.53v2L7.38,114.1H3.73v-5.57H0v14.72H3.73v-5.59H7.36l3.8,3.73v1.86H15V120l-4.3-4.17,4.3-4v-3.27Z"/><path d="M34.71,123.25v-9.32l-5.5-5.65H25.12L19.57,114v9.29h3.68v-3.59H31v3.59ZM31,115.13v1.31H23.25v-1.35l3.89-3.75Z"/><path d="M54.53,123.25V111.13l-2.62-2.6H39.58v14.72h3.73V112h7.5v11.22Z"/><path d="M59.73,108.53v14.72H72.5l2.34-2.35V118l-2-2.14,2-2V110.9l-2.39-2.37Zm3.64,8.86H70.7v2.73H63.37Zm0-5.73H70.7v2.67H63.37Z"/><path d="M94.42,123.25v-9.32l-5.5-5.65h-4.1L79.28,114v9.29H83v-3.59h7.75v3.59Zm-3.71-8.12v1.31H83v-1.35l3.89-3.75Z"/><path d="M114.24,123.25V111.13l-2.62-2.6H99.29v14.72H103V112h7.5v11.22Z"/><path d="M39.64,132.24v6.4h5.55L46.83,137v-3.12l-1.64-1.64Zm5.44,4.21-.68.68H41.26v-3.38h3.13l.69.7Zm8.38.81h-3v-1.09h3.19V134.7H50.44v-1.08h3l.6.6,1.09-1.09-.89-.89H48.9v6.4h5.33l.89-.89-1.07-1.07Zm7.38-2.11-3.07-3.29-1.05,1v5.8h1.57v-4l2.54,2.79,2.53-2.8v4H65v-5.78l-1.06-1Zm12.08-3H68.74L67,133.87V137l1.69,1.68h4.18l1.7-1.69v-3.15Zm0,4.28-.74.73H69.47l-.75-.75v-2l.74-.74h2.71l.76.75Z"/></svg>