<svg id="logo" xmlns="http://www.w3.org/2000/svg" ><title>logo</title><path d="M86.6,92.93H30a4.33,4.33,0,0,1-4.32-4.33V4.32A4.33,4.33,0,0,1,30,0H86.6a4.33,4.33,0,0,1,4.32,4.32V88.6A4.33,4.33,0,0,1,86.6,92.93Zm-53.35-7.6H83.32V7.6H33.25Z"/><path d="M20.66,73H7.6V22.27H20.66v-7.6H4.32A4.33,4.33,0,0,0,0,19v57.3a4.33,4.33,0,0,0,4.32,4.33H20.66Z"/><path d="M112.25,14.67H95.91v7.6H109V73H95.91v7.6h16.34a4.33,4.33,0,0,0,4.32-4.33V19A4.33,4.33,0,0,0,112.25,14.67Z"/><rect x="62.61" y="11.92" width="16.24" height="5.63" rx="2.14"/></svg>