<?xml version="1.0" encoding="utf-8"?>
<!-- Generator: Adobe Illustrator 24.0.1, SVG Export Plug-In . SVG Version: 6.00 Build 0)  -->
<svg version="1.1" id="new" xmlns="http://www.w3.org/2000/svg" xmlns:xlink="http://www.w3.org/1999/xlink" xml:space="preserve">
<path d="M160,0C71.63,0,0,71.63,0,160c0,88.37,71.63,160,160,160s160-71.63,160-160C320,71.63,248.37,0,160,0z M252.5,174.5h-78v78
	c0,8.01-6.49,14.5-14.5,14.5s-14.5-6.49-14.5-14.5v-78h-78c-8.01,0-14.5-6.49-14.5-14.5s6.49-14.5,14.5-14.5h78v-78
	c0-8.01,6.49-14.5,14.5-14.5s14.5,6.49,14.5,14.5v78h78c8.01,0,14.5,6.49,14.5,14.5S260.51,174.5,252.5,174.5z"/>
</svg>
