<svg id="af87bde4-2f5a-41e3-b223-701a2b7ca8df" data-name="project" xmlns="http://www.w3.org/2000/svg"><title>project</title><path d="M78.87,278.73H29V85H78.87V56H16.5A16.52,16.52,0,0,0,0,72.5V291.23a16.52,16.52,0,0,0,16.5,16.5H78.87Z"/><path d="M428.48,56H366.11V85H416V278.73H366.11v29h62.37a16.52,16.52,0,0,0,16.5-16.5V72.5A16.52,16.52,0,0,0,428.48,56Z"/><path d="M330.57,354.72H114.41a16.52,16.52,0,0,1-16.5-16.5V16.5A16.52,16.52,0,0,1,114.41,0H330.57a16.52,16.52,0,0,1,16.5,16.5V338.22A16.52,16.52,0,0,1,330.57,354.72Zm-203.66-29H318.07V29H126.91Z"/><rect x="238.52" y="45.6" width="62" height="21.48" rx="10.74"/></svg>